<?xml version="1.0" standalone="no"?>
<!DOCTYPE svg PUBLIC "-//W3C//DTD SVG 20010904//EN"
 "http://www.w3.org/TR/2001/REC-SVG-20010904/DTD/svg10.dtd">
<svg version="1.0" xmlns="http://www.w3.org/2000/svg"
 width="260.000000pt" height="280.000000pt" viewBox="0 0 260.000000 280.000000"
 preserveAspectRatio="xMidYMid meet">

<g transform="translate(0.000000,280.000000) scale(0.100000,-0.100000)"
fill="#000000" stroke="none">
<path d="M578 2503 l-248 -3 0 -299 0 -299 71 -4 c39 -2 73 -1 75 1 2 2 4 107
4 233 l0 228 175 0 175 0 0 75 c0 41 -1 74 -2 73 -2 -2 -114 -4 -250 -5z"/>
<path d="M1770 2433 l0 -73 175 0 175 0 0 -228 c0 -126 2 -231 4 -233 2 -2 36
-3 75 -1 l71 4 0 298 0 299 -250 3 -250 3 0 -72z"/>
<path d="M650 1855 l0 -305 305 0 305 0 -2 303 -3 302 -302 3 -303 2 0 -305z
m490 -5 l0 -190 -187 2 -188 3 -3 175 c-1 96 0 180 2 187 4 10 49 13 191 13
l185 0 0 -190z"/>
<path d="M850 1850 l0 -110 105 0 105 0 0 110 0 110 -105 0 -105 0 0 -110z"/>
<path d="M1347 2153 c-4 -3 -7 -141 -7 -305 l0 -298 305 0 305 0 -2 303 -3
302 -296 3 c-162 1 -298 -1 -302 -5z m483 -303 l0 -190 -187 2 -188 3 -3 175
c-1 96 0 180 2 187 4 10 49 13 191 13 l185 0 0 -190z"/>
<path d="M1540 1850 l0 -110 105 0 105 0 0 110 0 110 -105 0 -105 0 0 -110z"/>
<path d="M1770 1430 l0 -30 -105 0 -105 0 0 25 0 25 -105 0 -105 0 0 -90 0
-90 104 0 105 0 3 28 3 27 100 0 100 0 3 -27 c3 -28 3 -28 -57 -28 l-61 0 0
-75 0 -75 -60 0 -60 0 0 50 0 51 -57 -3 -58 -3 -3 -57 -3 -58 41 0 40 0 0 -65
0 -65 -70 0 -70 0 0 -55 0 -55 160 0 160 0 0 90 0 90 80 0 80 0 0 95 0 95 60
0 60 0 0 115 0 115 -90 0 -90 0 0 -30z"/>
<path d="M652 1148 l3 -303 303 -3 302 -2 0 305 0 305 -305 0 -305 0 2 -302z
m498 2 l0 -190 -190 0 -190 0 0 190 0 190 190 0 190 0 0 -190z"/>
<path d="M850 1150 l0 -110 105 0 105 0 0 110 0 110 -105 0 -105 0 0 -110z"/>
<path d="M340 1102 c-6 -2 -10 -118 -10 -308 l0 -304 250 0 250 0 0 75 0 75
-175 0 -175 0 0 229 0 229 -65 4 c-36 1 -70 2 -75 0z"/>
<path d="M2124 1101 c-2 -2 -4 -107 -4 -233 l0 -228 -175 0 -175 0 0 -75 0
-76 250 1 250 1 0 304 0 303 -71 4 c-39 2 -73 1 -75 -1z"/>
<path d="M1820 915 l0 -55 60 0 60 0 0 55 0 55 -60 0 -60 0 0 -55z"/>
<path d="M603 95 c0 -27 2 -38 4 -22 2 15 8 27 13 27 5 0 11 -12 13 -27 4 -26
4 -26 6 5 1 22 -4 32 -13 32 -8 0 -17 8 -19 18 -3 9 -5 -5 -4 -33z"/>
<path d="M1102 95 c0 -27 2 -43 5 -35 3 8 13 24 22 35 15 18 15 19 -1 7 -14
-12 -17 -10 -21 15 -2 16 -4 6 -5 -22z"/>
<path d="M720 120 c-4 -25 1 -54 10 -63 4 -5 5 3 3 17 -4 19 -1 26 11 26 9 0
16 -8 16 -19 0 -11 4 -22 9 -25 5 -4 7 3 4 15 -3 12 -1 24 4 28 7 4 6 11 -3
19 -8 7 -14 8 -14 2 0 -14 -27 -13 -33 3 -4 8 -6 8 -7 -3z"/>
<path d="M949 118 c-2 -25 3 -53 11 -62 5 -5 6 1 3 14 -3 12 -1 25 4 29 7 4 6
11 -3 19 -11 10 -14 10 -15 0z"/>
<path d="M1500 125 c-1 -5 -1 -21 0 -34 1 -13 -4 -28 -12 -32 -9 -6 -3 -9 17
-9 17 0 25 4 18 8 -6 4 -13 23 -16 42 -2 19 -5 31 -7 25z"/>
<path d="M1557 123 c22 -4 22 -6 8 -33 -22 -42 -17 -51 5 -10 25 46 25 50 -7
49 -24 -2 -25 -2 -6 -6z"/>
<path d="M1607 123 c-12 -12 -7 -33 7 -33 26 0 28 -20 4 -29 -14 -6 -17 -10
-7 -10 8 -1 20 4 26 10 14 14 6 39 -13 39 -20 0 -17 18 4 23 14 4 14 5 1 6 -9
0 -19 -2 -22 -6z"/>
<path d="M1677 123 c22 -4 22 -6 8 -33 -22 -42 -17 -51 5 -10 25 46 25 50 -7
49 -24 -2 -25 -2 -6 -6z"/>
<path d="M1737 123 c22 -4 22 -6 8 -33 -22 -42 -17 -51 5 -10 25 46 25 50 -7
49 -24 -2 -25 -2 -6 -6z"/>
<path d="M1792 105 c-22 -28 -23 -30 -5 -34 10 -2 21 -8 25 -15 6 -8 8 -7 8 2
0 6 11 12 25 12 14 0 25 -6 25 -12 0 -10 2 -10 8 0 5 7 6 27 4 44 l-5 32 -23
-27 c-29 -34 -32 -34 -36 0 l-3 28 -23 -30z m14 -22 c-10 -10 -19 5 -10 18 6
11 8 11 12 0 2 -7 1 -15 -2 -18z m60 0 c-10 -10 -19 5 -10 18 6 11 8 11 12 0
2 -7 1 -15 -2 -18z"/>
<path d="M1917 123 c22 -4 22 -6 8 -33 -22 -42 -17 -51 5 -10 25 46 25 50 -7
49 -24 -2 -25 -2 -6 -6z"/>
<path d="M1967 123 c-12 -12 -7 -33 7 -33 26 0 28 -20 4 -29 -14 -6 -17 -10
-7 -10 8 -1 20 4 26 10 14 14 6 39 -13 39 -20 0 -17 18 4 23 14 4 14 5 1 6 -9
0 -19 -2 -22 -6z"/>
<path d="M2030 106 c-15 -29 -8 -56 15 -56 23 0 31 31 12 45 -12 9 -14 14 -5
23 7 7 8 12 2 12 -6 0 -16 -11 -24 -24z m22 -31 c0 -5 -5 -11 -11 -13 -6 -2
-11 4 -11 13 0 9 5 15 11 13 6 -2 11 -8 11 -13z"/>
<path d="M550 93 c0 -10 4 -14 8 -8 4 6 11 13 16 18 5 4 2 7 -7 7 -10 0 -17
-8 -17 -17z"/>
<path d="M661 83 c-1 -27 3 -33 19 -33 16 0 20 6 19 33 -2 30 -2 30 -6 5 -6
-36 -20 -36 -26 0 -4 25 -4 25 -6 -5z"/>
<path d="M807 104 c-13 -13 -7 -24 14 -24 11 0 19 5 17 12 -5 14 -22 21 -31
12z"/>
<path d="M861 78 c2 -28 2 -29 6 -8 3 14 10 28 17 32 7 5 5 8 -6 8 -14 0 -18
-8 -17 -32z"/>
<path d="M900 93 c0 -10 4 -14 8 -8 4 6 11 13 16 18 5 4 2 7 -7 7 -10 0 -17
-8 -17 -17z"/>
<path d="M994 95 c-8 -21 2 -45 20 -45 7 0 16 7 20 15 8 21 -3 45 -20 45 -8 0
-17 -7 -20 -15z m31 -15 c0 -7 -6 -15 -12 -17 -8 -3 -13 4 -13 17 0 13 5 20
13 18 6 -3 12 -11 12 -18z"/>
<path d="M1054 95 c-8 -20 2 -45 18 -44 10 0 10 2 1 6 -7 2 -13 13 -13 23 0
10 6 21 13 23 9 4 9 6 -1 6 -7 1 -15 -6 -18 -14z"/>
<path d="M1194 95 c-8 -20 2 -45 18 -44 10 0 10 2 1 6 -7 2 -13 13 -13 23 0
10 6 21 13 23 9 4 9 6 -1 6 -7 1 -15 -6 -18 -14z"/>
<path d="M1245 100 c-3 -5 0 -7 8 -4 20 7 32 -15 18 -29 -9 -9 -14 -8 -22 3
-9 13 -10 13 -6 0 5 -21 33 -24 40 -5 13 32 -21 63 -38 35z"/>
<path d="M1301 77 c2 -31 2 -31 6 -4 2 15 8 27 13 27 5 0 11 -12 13 -27 l4
-28 2 28 c0 15 5 27 10 27 5 0 12 -12 14 -27 4 -27 4 -27 6 4 1 29 -1 31 -34
31 -33 0 -35 -2 -34 -31z"/>
<path d="M562 65 c-11 -12 -10 -15 3 -15 8 0 15 7 15 15 0 18 -2 18 -18 0z"/>
<path d="M912 65 c-11 -12 -10 -15 3 -15 8 0 15 7 15 15 0 18 -2 18 -18 0z"/>
<path d="M1120 71 c0 -5 5 -13 10 -16 6 -3 10 -2 10 4 0 5 -4 13 -10 16 -5 3
-10 2 -10 -4z"/>
<path d="M808 58 c5 -5 16 -8 23 -6 8 3 3 7 -10 11 -17 4 -21 3 -13 -5z"/>
</g>
</svg>
